<?xml version="1.0" encoding="UTF-8"?>
<svg xmlns="http://www.w3.org/2000/svg" id="Layer_1" data-name="Layer 1" viewBox="0 0 24 24" width="512" height="512"><path d="m17,22.5c0,.828-.672,1.5-1.5,1.5h-7c-.828,0-1.5-.672-1.5-1.5,0-1.381,1.119-2.5,2.5-2.5h5c1.381,0,2.5,1.119,2.5,2.5Zm.882-6.693c2.441,1.238,4.118,3.773,4.118,6.693,0,.828-.672,1.5-1.5,1.5s-1.5-.672-1.5-1.5c0-2.481-2.019-4.5-4.5-4.5h-5c-2.481,0-4.5,2.019-4.5,4.5,0,.828-.672,1.5-1.5,1.5s-1.5-.672-1.5-1.5c0-2.92,1.677-5.455,4.118-6.693-1.432-1.24-2.471-2.923-2.9-4.834-.694-.132-1.218-.741-1.218-1.473v-2c0-.828.672-1.5,1.5-1.5.005,0,.01,0,.015,0C4.753,2.508,8.089,0,12,0s7.247,2.508,8.485,6c.005,0,.01,0,.015,0,.828,0,1.5.672,1.5,1.5v2c0,.732-.525,1.341-1.218,1.473-.429,1.911-1.467,3.594-2.9,4.834Zm.118-6.807c0-3.309-2.691-6-6-6s-6,2.691-6,6,2.691,6,6,6,6-2.691,6-6Zm-9.899-2c-.744,0-1.101.657-1.101,1,0,2.761,2.239,5,5,5s5-2.239,5-5c0-.343-.284-1-1-1h-7.899Z"/></svg>
