<?xml version="1.0" ?><!DOCTYPE svg  PUBLIC '-//W3C//DTD SVG 1.1//EN'  'http://www.w3.org/Graphics/SVG/1.1/DTD/svg11.dtd'><svg height="80px" id="Layer_1" style="enable-background:new 0 0 80 80;" version="1.1" viewBox="0 0 80 80" width="80px" xml:space="preserve" xmlns="http://www.w3.org/2000/svg" xmlns:xlink="http://www.w3.org/1999/xlink"><style type="text/css">
	.st0{fill:#1C2B36;}
</style><path class="st0" d="M70.3,37.5c-0.7-4.3-6.1-15.4-7.6-21.1c-1.4-5-7.9-5.1-10-5.9c-0.4-0.1-1.4-0.5-1.5-0.5  c-0.3-0.1-1.3,0.8-1.8,1.9c-1.4,3-4.4,5.7-9.3,5.7c-4.9,0-8-2.7-9.3-5.7c-0.5-1.2-1.5-2-1.8-1.9c-0.1,0-1.1,0.4-1.5,0.5  c-2.2,0.7-8.7,0.9-10,5.9c-1.5,5.6-6.9,16.7-7.6,21.1C9,42,11.2,48.8,12.3,68.3c0,0,4,0.9,7.8-0.8c-0.7-4.5-3.2-21.3-2.1-27.6  c0.8-4.3,5.5-11.7,5.5-11.7c1,0.5-0.4,4.4-0.2,6.3c0.5,4.8,2.9,6.6,2.1,14.4c-0.5,5.2-4.4,15.3-4,15.9C23.9,67.4,32.1,70,40,70  c7.9,0,16.1-2.5,18.6-5.3c0.5-0.5-3.4-10.6-4-15.9c-0.8-7.8,1.6-9.6,2.1-14.4c0.2-1.9-1.2-5.8-0.2-6.3c0,0,4.7,7.4,5.5,11.7  c1,6.3-1.4,23.1-2.1,27.6c3.8,1.7,7.8,0.8,7.8,0.8C68.8,48.8,71,42,70.3,37.5z"/></svg>