<?xml version="1.0" encoding="UTF-8"?>
<svg xmlns="http://www.w3.org/2000/svg" id="Layer_1" data-name="Layer 1" viewBox="0 0 24 24">
  <path d="m13.729,11.998c-.279,0-.558-.068-.812-.204-.565-.302-.916-.888-.916-1.529V3.998C12,1.792,13.794-.002,16-.002h4C22.206-.002,24,1.792,24,3.998v2.002c0,2.206-1.794,4-4,4h-2.854l-2.435,1.696c-.301.202-.643.302-.983.302Zm2.771,3.002h-.5c0-.551-.112-1.077-.315-1.555-.61.368-1.275.554-1.957.554-.609,0-1.216-.152-1.755-.44-.997-.533-1.757-1.476-1.973-2.558v-1c0-.552-.448-1-1-1s-1,.448-1,1v1h-2c-2.206,0-4,1.794-4,4h-.5c-.827,0-1.5.673-1.5,1.5v2c0,.827.673,1.5,1.5,1.5h.5c0,2.206,1.794,4,4,4h6c2.206,0,4-1.794,4-4h.5c.827,0,1.5-.673,1.5-1.5v-2c0-.827-.673-1.5-1.5-1.5Zm-10,4c-.828,0-1.5-.672-1.5-1.5s.672-1.5,1.5-1.5,1.5.672,1.5,1.5-.672,1.5-1.5,1.5Zm5,0c-.828,0-1.5-.672-1.5-1.5s.672-1.5,1.5-1.5,1.5.672,1.5,1.5-.672,1.5-1.5,1.5Z"/>
</svg>
