<?xml version="1.0" ?><!DOCTYPE svg  PUBLIC '-//W3C//DTD SVG 1.1//EN'  'http://www.w3.org/Graphics/SVG/1.1/DTD/svg11.dtd'><svg height="80px" id="Layer_1" style="enable-background:new 0 0 80 80;" version="1.1" viewBox="0 0 80 80" width="80px" xml:space="preserve" xmlns="http://www.w3.org/2000/svg" xmlns:xlink="http://www.w3.org/1999/xlink"><style type="text/css">
	.st0{fill:#1C2B36;}
</style><path class="st0" d="M41.3,40.2v7.1h14.3c-1.6-1.7-2.5-4.2-2.5-7.1c0-4.9-3-7.1-5.9-7.1c-1.5,0-3,0.6-4,1.7  C42,36,41.3,37.9,41.3,40.2z M56.1,40.2c0,2.3,0.7,4.2,2,5.5c1.1,1.1,2.6,1.7,4.2,1.7c3,0,6.2-2.3,6.2-7.2V8.1h-4.7v6.7  c0,0.8-0.7,1.5-1.5,1.5c-0.8,0-1.5-0.7-1.5-1.5V8.1h-4.3v6.7c0,0.8-0.7,1.5-1.5,1.5c-0.8,0-1.5-0.7-1.5-1.5V8.1h-4.7v6.7  c0,0.8-0.7,1.5-1.5,1.5c-0.8,0-1.5-0.7-1.5-1.5V8.1h-4.7v22.1h5.5v-0.1c0.4,0,0.2,0,0.3,0c2.3,0,4.6,0.9,6.2,2.6  C55.1,34.5,56.1,37.1,56.1,40.2z M34,64.9v6.9h4.3V40.2c0-3.1,1-5.3,2.5-7H17.4c-2.8,0-5.9,2.2-5.9,7v31.7h4.7v-6.9  c0-0.8,0.7-1.5,1.5-1.5c0.8,0,1.5,0.7,1.5,1.5v6.9h4.3v-6.9c0-0.8,0.7-1.5,1.5-1.5c0.8,0,1.5,0.7,1.5,1.5v6.9h4.7v-6.9  c0-0.8,0.7-1.5,1.5-1.5C33.4,63.5,34,64.1,34,64.9z"/></svg>