<?xml version="1.0" ?><!DOCTYPE svg  PUBLIC '-//W3C//DTD SVG 1.1//EN'  'http://www.w3.org/Graphics/SVG/1.1/DTD/svg11.dtd'><svg height="80px" id="Layer_1" style="enable-background:new 0 0 80 80;" version="1.1" viewBox="0 0 80 80" width="80px" xml:space="preserve" xmlns="http://www.w3.org/2000/svg" xmlns:xlink="http://www.w3.org/1999/xlink"><style type="text/css">
	.st0{fill:#1C2B36;}
</style><g><g><g><path class="st0" d="M42.3,39h-4.7c-0.2,0-0.3,0.1-0.3,0.3v2.8c0,0.2,0.1,0.3,0.3,0.3h4.7c0.2,0,0.3-0.1,0.3-0.3v-0.9     c0,0,0,0,0,0h-2.1c-0.3,0-0.5-0.2-0.5-0.5c0-0.3,0.2-0.5,0.5-0.5h2.1c0,0,0,0,0,0v-0.9C42.6,39.1,42.5,39,42.3,39z M63,38.8     c-0.4-2.5-1.5-12.9-2-16.4c-0.7-5.3-2.3-9.7-4.2-10.8c-0.9-0.5-2.8-1.3-5.1-2.1c0,0,0.1,0.1,0.1,0.1c0.4,0.6,0.7,1.2,1,1.8     c0.3,0.6,0.6,1.2,0.9,1.9v0l0.1,0.5l2.2,0.7l2.4,0.8l-2.5,0.7v0c-0.4,0.1-0.8,0.2-1.1,0.3c-0.4,0.1-0.8,0.2-1.1,0.4     c-0.8,0.3-1.5,0.6-2.3,0.9c-1.5,0.6-2.9,1.4-4.3,2.3c-2.8,1.7-5.3,3.9-7.3,6.5l-0.1-0.1c1.8-2.8,4.2-5.2,6.9-7.1     c1.4-1,2.8-1.9,4.3-2.6c0.7-0.4,1.5-0.7,2.3-1.1c0.1,0,0.2-0.1,0.3-0.1l-2.9-1l-4.2-1.4l4.4-0.1l1.2,0c-0.1-0.3-0.2-0.6-0.3-0.9     c-0.2-0.6-0.4-1.2-0.7-1.9c-0.2-0.4-0.4-0.8-0.6-1.2c-0.1-0.1-0.2-0.2-0.3-0.3c-2.8-2.5-4-3.2-4.5-3.5c-0.7-0.5-3.9-0.6-5.6-0.6     c-1.7,0-4.9,0.1-5.6,0.6c-0.4,0.3-1.1,0.7-2.7,2c-0.6,0.6-1.1,1.2-1.6,1.8c-0.5,0.7-1,1.5-1.4,2.3c-0.2,0.4-0.3,0.8-0.5,1.3     c0,0.1-0.1,0.2-0.1,0.4l1.2,0l4.4,0.1l-4.2,1.4l-3.4,1.1c0.4,0.2,0.7,0.4,1.1,0.7c0.8,0.5,1.6,1.1,2.4,1.7     c1.6,1.2,3.1,2.5,4.5,3.9c1.4,1.4,2.7,3,3.7,4.7c1,1.7,1.9,3.5,2.3,5.5l-0.3,0.1c-0.5-1.9-1.4-3.6-2.5-5.2     c-1.1-1.6-2.4-3-3.8-4.3c-1.4-1.3-2.9-2.5-4.5-3.6c-0.8-0.5-1.6-1.1-2.4-1.5c-0.8-0.5-1.7-1-2.5-1.4h0L22.3,15l1.7-0.6l2.2-0.8     l0.1-0.4v0c0-0.2,0.1-0.3,0.1-0.4c0-0.1,0.1-0.2,0.1-0.4c0.1-0.2,0.2-0.5,0.3-0.7c0.2-0.5,0.4-0.9,0.7-1.4c0.2-0.3,0.4-0.7,0.6-1     c-2.2,0.8-4,1.5-4.9,2.1c-1.9,1.1-3.4,5.5-4.2,10.8c-0.5,3.5-1.6,13.9-2,16.4C16.3,43.3,17.8,63,17.8,63s2.9,0.5,4.7-0.4     c0-1.3,0-5.6,0-5.6s1.2-3.9,1.5-7.2c0.2-3.3,1.6-14.9,2.2-22c0.7,3.8,2.1,6.5,2.7,9.8c0.4,2.1,0,4.1-0.1,4.7     c-0.4,2.9-3.7,5.9-6.1,28.3c1,2.8,9.4,4.8,15,5.2L40,57.5l1.3,17.9c4.5-0.3,14.8-2.4,16-4.9c-2.5-22.4-5.7-25.4-6.1-28.3     c-0.1-0.5-0.4-2.5-0.1-4.7c0.6-3.4,1.9-6,2.7-9.8c0.6,7.1,2,18.7,2.2,22c0.2,3.3,1.5,7.2,1.5,7.2s0,4.2,0,5.6     c1.8,0.9,4.7,0.4,4.7,0.4S63.7,43.3,63,38.8z M33.9,12.1c-0.3-0.8-0.1-4.7,0.3-5.3c0.3-0.5,3.9-0.7,5.7-0.8     c1.8,0.1,5.4,0.4,5.7,0.8c0.4,0.6,0.6,4.6,0.3,5.3c-1.3,3.2-4.8,7.7-6.3,12L40,25C38.8,20.4,35.3,15.3,33.9,12.1z M31.5,43l-1,0     l0.2-4.6l1,0L31.5,43z M43.5,42.1c0,0.6-0.5,1.2-1.2,1.2h-4.7c-0.6,0-1.2-0.5-1.2-1.2v-2.8c0-0.6,0.5-1.2,1.2-1.2h4.7     c0.6,0,1.2,0.5,1.2,1.2V42.1z M48.5,43l-0.2-4.6l1,0l0.2,4.6L48.5,43z"/></g></g></g></svg>