<?xml version="1.0" ?><!DOCTYPE svg  PUBLIC '-//W3C//DTD SVG 1.1//EN'  'http://www.w3.org/Graphics/SVG/1.1/DTD/svg11.dtd'><svg height="80px" id="Layer_1" style="enable-background:new 0 0 80 80;" version="1.1" viewBox="0 0 80 80" width="80px" xml:space="preserve" xmlns="http://www.w3.org/2000/svg" xmlns:xlink="http://www.w3.org/1999/xlink"><style type="text/css">
	.st0{fill:#1C2B36;}
</style><path class="st0" d="M61.6,19.4c-0.5-0.2-5.1-1.7-5.6-2c-5.8-2.7-6.3-6.7-8.7-7.1c-1.5-0.3-4.1-0.1-7.1-0.1h-0.2  c-3.1,0-5.6-0.2-7.1,0.1c-2.4,0.4-2.9,4.3-8.7,7.1c-0.5,0.2-5.1,1.7-5.6,1.9C13.4,21.6,11.2,31.2,8.1,36c2.7,3,6.8,4.4,11.5,5.3  c0.6-0.8,2.6-6.9,2.7-5.8c2.7,11.3-1.5,26.7-2.7,30.1c1.6,2.6,10.7,3.8,18.9,4.3h2.7c8.3-0.4,17.3-1.6,18.9-4.3  c-1.2-3.4-5.4-18.8-2.7-30.1c0.2-1.1,2.1,5,2.7,5.8c4.8-0.9,8.8-2.3,11.5-5.3C68.8,31.2,66.6,21.6,61.6,19.4z M47.2,20  c0,0-5.5,4.4-7.2,6.4c-1.8-2-7.2-6.4-7.2-6.4l-11.2,0c0,0,8.2-3.2,10-8c0,0.7,0.2,1.3,0.6,2.2c0-0.4,0-0.8,0-1.1  c0.3-1.5,3.4-1.2,7.6-1.2H40c0,0,0,0,0,0s0,0,0,0h0.2c4.2,0,7.3-0.3,7.6,1.2c0.1,0.3,0.1,0.7,0,1.1c0.4-1,0.6-1.5,0.6-2.2  c1.9,4.8,10,8,10,8L47.2,20z M40.2,15.4H40c0,0,0,0,0,0s0,0,0,0h-0.2c-3.1,0-5.7-0.1-6.9,0.4c1.9,3.6,6.9,10.2,7,10.7  c0.1-0.5,5.1-7.1,7-10.7C45.8,15.2,43.3,15.4,40.2,15.4z"/></svg>