<?xml version="1.0" ?><!DOCTYPE svg  PUBLIC '-//W3C//DTD SVG 1.1//EN'  'http://www.w3.org/Graphics/SVG/1.1/DTD/svg11.dtd'><svg height="80px" id="Layer_1" style="enable-background:new 0 0 80 80;" version="1.1" viewBox="0 0 80 80" width="80px" xml:space="preserve" xmlns="http://www.w3.org/2000/svg" xmlns:xlink="http://www.w3.org/1999/xlink"><style type="text/css">
	.st0{fill:#1C2B36;}
</style><path class="st0" d="M54.2,14.5c0,0-7.6,0.8-14.2,0.8c-6.6,0-14.2-0.8-14.2-0.8v5.6c-13.7,17.6-14,35.3-17.7,39.5  c0.8,0.6,3,1.9,10.2,2.8c1.1-8.5,7.8-30,9.7-36c-1.6,6.3-7.1,28.7-7.3,36.3c0,0.6,0,1.1,0,1.5c0.2,0.1,11.6,1.5,12.1,1.5  c0.1-0.3,0.2-0.8,0.4-1.6c0-0.2,0.1-0.4,0.1-0.6c0.7-4.3,3.2-26.1,3.6-28c-0.4,9.3-1.6,28.4-1.6,28.6c1.9,0.3,3,0.4,4.7,0.4  c1.7,0,2.8-0.1,4.7-0.4c0-0.2-1.2-19.3-1.6-28.6c0.3,1.9,2.9,23.7,3.6,28c0,0.2,0.1,0.4,0.1,0.6c0.1,0.7,0.2,1.3,0.4,1.6  c0.5,0,11.9-1.3,12.1-1.5c0-0.4,0.1-0.9,0-1.5c-0.2-7.5-5.7-29.9-7.3-36.3c1.9,6,8.6,27.6,9.7,36c7.2-0.9,9.4-2.2,10.2-2.8  c-3.7-4.2-4-21.8-17.7-39.5V14.5z"/></svg>