<svg viewBox="0 0 223.97 204" xml:space="preserve" xmlns="http://www.w3.org/2000/svg"><path d="m212.766 60.777-25.573-35.8-32.33 17.476 15.366 52.93 42.318-34.485c.066-.054.15-.074.219-.12zM63.108 100h100.13l-16.257-56H77.108zM11.204 60.777c.068.047.15.067.216.121l44.211 36.024L69.233 42.52 36.776 24.976 11.203 60.777z" fill="#f26e21" class="fill-fcc24c"></path><path d="M223.852 64.867c.023-.101.06-.195.076-.297.065-.449.055-.902-.037-1.351-.021-.106-.068-.203-.098-.309-.062-.218-.105-.437-.207-.648-.066-.137-.17-.246-.252-.375-.04-.067-.047-.145-.093-.211l-30-42c-.422-.59-.998-.973-1.616-1.254-.396-.914-1.103-1.684-2.052-2.094l-37-16A4.036 4.036 0 0 0 150.985 0h-78c-.547 0-1.086.113-1.588.328l-37 16c-.95.41-1.656 1.176-2.053 2.094-.617.281-1.193.664-1.615 1.254l-30 42c-.047.066-.053.144-.094.21-.082.13-.185.239-.252.376-.101.21-.144.43-.207.648-.031.106-.076.203-.098.309a3.93 3.93 0 0 0-.036 1.351c.015.102.052.196.076.297.078.352.203.688.376 1.012.065.121.128.234.204.347.056.082.09.18.154.262l108 136a4.007 4.007 0 0 0 3.133 1.512c1.22 0 2.373-.558 3.133-1.512l108-136c.064-.082.097-.18.154-.262.076-.113.138-.226.203-.347a3.93 3.93 0 0 0 .377-1.012zm-97.73 110.899L165.65 108h.334c.92 0 1.812-.316 2.527-.898l34.393-28.024-76.784 96.688zM146.98 44l16.258 56H63.108l14-56h69.873zM55.63 96.922l-44.21-36.024c-.067-.054-.15-.074-.218-.12l25.573-35.802L69.233 42.52 55.63 96.922zm114.598-1.54-15.366-52.929 32.33-17.477 25.573 35.801c-.068.047-.152.067-.219.121L170.23 95.383zM73.813 8h76.344l28.675 12.398L149.973 36H73.996L45.137 20.398 73.813 8zm-18.355 99.102c.023.02.052.023.076.042.103.082.234.126.347.196.313.195.63.363.98.468.057.016.097.055.153.07.322.083.643.118.961.122H58.32l39.527 67.762-76.78-96.684 34.392 28.024z" fill="#F8A131" class="fill-f8a131"></path><path d="M58.319 108H57.975a4.084 4.084 0 0 1-.961-.121c-.057-.016-.096-.055-.153-.07a4.065 4.065 0 0 1-.98-.469c-.113-.07-.244-.114-.348-.196-.023-.02-.052-.023-.076-.042l-34.39-28.024 76.779 96.684L58.319 108zM165.985 108h-.334l-39.53 67.766 76.784-96.688-34.393 28.024a4.001 4.001 0 0 1-2.527.898zM73.996 36h75.977l28.86-15.602L150.156 8H73.813L45.137 20.398z" fill="#f26e21" class="fill-fcc24c"></path></svg>